<svg xmlns="http://www.w3.org/2000/svg" viewBox="203 0 336 336" role="img" aria-label="Cuponia">
  <path
    fill="#2097A9"
    d="m 349.18026,303.22247 c -0.73466,-0.18251 -3.13898,-0.7225 -5.34294,-1.19998 -2.96876,-0.64318 -19.36014,-16.1636 -63.25188,-59.89099 -33.58123,-33.45549 -60.05264,-60.88474 -61.10989,-63.32108 -2.2706,-5.23238 -2.3342,-12.07018 -0.14822,-15.93347 0.89229,-1.57694 9.24083,-10.80115 18.55231,-20.49826 l 16.92998,-17.63111 1.96033,3.80157 c 1.07818,2.09086 15.59961,33.22458 32.26983,69.18604 16.67023,35.96146 31.15298,66.5887 32.1839,68.06055 1.03092,1.47184 4.37713,4.35693 7.43601,6.4113 8.91925,5.99024 14.80788,5.29827 48.57579,-5.70809 15.93484,-5.19383 29.22241,-9.19334 29.52793,-8.88782 0.48101,0.48101 -38.90337,37.23146 -45.1951,42.17256 -2.39314,1.87942 -10.07798,4.01264 -12.38805,3.43878 z m -16.02883,-35.10836 c -2.20396,-1.36138 -5.06426,-3.66623 -6.35623,-5.12189 -1.95928,-2.20753 -43.70891,-90.79119 -64.56581,-136.99462 -9.28877,-20.57706 -9.1365,-21.48146 8.95005,-53.156899 8.15803,-14.28737 16.2393,-27.432759 17.95838,-29.211975 2.51573,-2.603736 4.37804,-3.203711 9.54439,-3.074898 6.16156,0.153627 36.39408,3.502366 45.56117,5.046636 l 4.41328,0.743451 -11.5128,11.564724 c -25.6382,25.753845 -36.69923,51.209831 -36.69923,84.460101 0,31.06661 9.38898,54.35482 31.05401,77.02566 5.11919,5.35684 8.97534,10.95933 11.03252,16.02882 l 3.1626,7.79353 15.1006,0.85559 c 8.30533,0.47057 20.51033,1.80308 27.12222,2.96113 6.61189,1.15805 14.42594,2.27573 17.36456,2.48375 4.45062,0.31504 -0.12254,2.11386 -27.38257,10.77073 -17.99904,5.71589 -34.52876,10.37202 -36.73272,10.34695 -2.20397,-0.0251 -5.81045,-1.15942 -8.01442,-2.52079 z M 309.01279,70.81149 c 4.09245,-4.092455 1.84603,-11.412234 -4.03585,-13.150466 -3.36046,-0.993092 -9.89396,3.652361 -9.89396,7.034805 0,6.870722 9.15527,10.890198 13.92981,6.115661 z m 88.25394,172.25133 c -2.20397,-0.32562 -9.37259,-1.47608 -15.93027,-2.55659 -6.55768,-1.0805 -16.24359,-1.96455 -21.52423,-1.96455 h -9.60117 l -2.40367,-6.34475 c -1.49461,-3.94516 -5.75447,-9.88096 -11.26354,-15.69489 -14.79015,-15.60862 -21.1034,-26.09185 -26.97614,-44.7942 -2.73432,-8.70772 -3.11593,-12.50932 -3.0122,-30.00697 0.1074,-18.11733 0.46679,-21.05933 3.75293,-30.72191 10.2005,-29.993652 27.78998,-50.396513 65.17177,-75.595823 13.58052,-9.15472 21.63201,-13.728288 24.92988,-14.161168 4.20914,-0.552493 6.86138,0.570075 19.51801,8.261054 40.85123,24.823814 56.40412,39.581195 53.57876,50.838302 -0.49267,1.962975 -6.45933,9.288305 -13.25923,16.278505 -14.23727,14.6357 -15.68612,15.09113 -25.82405,8.11745 -14.98733,-10.30946 -36.00472,-12.09414 -51.63195,-4.38429 -20.43683,10.08272 -31.43636,34.34477 -25.70796,56.70492 8.77405,34.24845 48.08601,49.45474 76.77365,29.69687 11.44541,-7.88273 12.21807,-8.21442 15.88641,-6.81972 4.22873,1.60776 23.93188,17.99045 25.77205,21.42883 2.40194,4.48807 -0.94927,10.90265 -10.52636,20.14854 -9.80401,9.46498 -20.74671,15.70631 -33.19091,18.93092 -8.38884,2.17377 -27.69535,3.64948 -34.53178,2.63947 z M 408.95441,59.289101 c 5.47955,-6.337138 0.61756,-14.897718 -8.04854,-14.171201 -9.18029,0.769624 -11.25625,12.535927 -2.94909,16.715162 3.98666,2.005645 7.83305,1.115902 10.99763,-2.543961 z"
  />
</svg>
